<?xml version="1.0" encoding="UTF-8" standalone="no"?>
<svg
   xmlns:dc="http://purl.org/dc/elements/1.1/"
   xmlns:cc="http://creativecommons.org/ns#"
   xmlns:rdf="http://www.w3.org/1999/02/22-rdf-syntax-ns#"
   xmlns:svg="http://www.w3.org/2000/svg"
   xmlns="http://www.w3.org/2000/svg"
   viewBox="0 0 1150 370"
   height="370"
   width="1150"
   xml:space="preserve"
   id="svg2"
   version="1.1"><metadata
     id="metadata8"><rdf:RDF><cc:Work
         rdf:about=""><dc:format>image/svg+xml</dc:format><dc:type
           rdf:resource="http://purl.org/dc/dcmitype/StillImage" /><dc:title></dc:title><cc:license
           rdf:resource="https://www.apache.org/licenses/LICENSE-2.0.txt" /></cc:Work></rdf:RDF></metadata><defs
     id="defs6"><clipPath
       id="clipPath18"
       clipPathUnits="userSpaceOnUse"><path
         id="path16"
         d="M 0,295.948 H 612 V 0 H 0 Z" /></clipPath></defs><g
     transform="matrix(1.3769679,0,0,-1.3766743,119.56786,301.67316)"
     id="g10"><g
       transform="matrix(1.1720528,0,0,1.1720528,-16.386289,-98.265947)"
       id="g12"><g
         clip-path="url(#clipPath18)"
         id="g14"><g
           transform="translate(478.8418,198.1933)"
           id="g20"><path
             id="path22"
             style="fill:#231916;fill-opacity:1;fill-rule:nonzero;stroke:none"
             d="m 0,0 c -1.816,-1.387 -3.58,-2.744 -5.354,-4.088 -3.06,-2.318 -6.13,-4.62 -9.182,-6.949 -0.434,-0.331 -0.687,-0.357 -1.09,0.077 -2.61,2.808 -5.496,5.286 -8.885,7.127 -4.213,2.29 -8.73,3.228 -13.505,3.034 -3.224,-0.131 -6.29,-0.776 -8.89,-2.829 -2.56,-2.021 -3.457,-4.695 -2.823,-7.854 0.434,-2.163 1.911,-3.534 3.822,-4.455 2.495,-1.202 5.18,-1.814 7.886,-2.277 4.941,-0.847 9.903,-1.577 14.846,-2.407 2.24,-0.376 4.488,-0.761 6.681,-1.34 5.234,-1.383 9.817,-3.937 13.44,-8.027 2.229,-2.516 3.421,-5.551 3.965,-8.821 0.908,-5.468 0.568,-10.854 -1.512,-16.041 -2.513,-6.266 -7.096,-10.632 -12.932,-13.791 -4.242,-2.295 -8.809,-3.586 -13.56,-4.299 -3.46,-0.52 -6.941,-0.753 -10.431,-0.692 -7.863,0.137 -15.5,1.38 -22.645,4.873 -5.768,2.82 -10.52,6.831 -14.173,12.126 -0.22,0.32 -0.405,0.664 -0.613,1.007 0.116,0.078 0.185,0.162 0.232,0.15 1.078,-0.258 1.897,0.299 2.747,0.821 3.843,2.36 7.706,4.687 11.537,7.067 0.46,0.287 0.765,0.826 1.267,1.388 0.115,-0.159 0.288,-0.425 0.489,-0.667 4.49,-5.393 10.254,-8.43 17.14,-9.662 2.605,-0.466 5.174,-0.84 7.801,-0.74 3.261,0.124 6.395,0.781 9.189,2.584 1.349,0.871 2.687,1.864 3.164,3.434 0.497,1.635 0.848,3.366 0.572,5.105 -0.319,2.003 -1.62,3.351 -3.234,4.421 -2.553,1.695 -5.421,2.671 -8.382,3.267 -4.257,0.857 -8.554,1.521 -12.836,2.264 -5.475,0.95 -10.83,2.277 -15.731,5.023 -6.518,3.653 -9.902,9.245 -10.353,16.672 -0.255,4.232 0.183,8.367 1.843,12.293 0.463,1.094 1.26,2.049 1.92,3.057 4.538,6.932 10.991,11.128 18.912,13.23 5.375,1.426 10.861,1.578 16.375,1.49 7.652,-0.122 14.705,-2.304 21.282,-6.114 C -6.889,7.064 -3.327,3.974 -0.239,0.334 -0.177,0.26 -0.126,0.176 0,0" /></g><g
           transform="translate(343.4121,151.8857)"
           id="g24"><path
             id="path26"
             style="fill:#231916;fill-opacity:1;fill-rule:nonzero;stroke:none"
             d="m 0,0 c 0.805,-0.859 1.644,-1.802 2.533,-2.696 3.896,-3.915 8.65,-6.167 14.013,-7.301 2.989,-0.632 5.972,-1.153 9.041,-0.974 2.924,0.17 5.791,0.643 8.331,2.178 1.168,0.706 2.185,1.682 3.206,2.606 1.182,1.068 0.965,2.643 1.243,4.011 0.585,2.868 -0.647,5.011 -2.963,6.606 -2.609,1.798 -5.568,2.805 -8.626,3.423 -4.232,0.855 -8.504,1.522 -12.761,2.255 -5.8,0.999 -11.465,2.407 -16.57,5.491 -5.803,3.507 -8.907,8.692 -9.503,15.414 -0.401,4.53 0.003,8.969 1.817,13.173 0.549,1.272 1.492,2.377 2.285,3.539 5.133,7.523 12.452,11.553 21.221,13.272 4.503,0.882 9.054,0.97 13.619,0.874 9.461,-0.199 17.922,-3.27 25.472,-8.912 2.548,-1.903 4.827,-4.104 6.895,-6.656 -5.049,-3.828 -10.072,-7.636 -15.052,-11.41 -1.548,1.433 -2.988,2.863 -4.53,4.173 -3.648,3.099 -7.775,5.269 -12.537,6.053 -4.049,0.666 -8.09,0.749 -11.986,-0.814 -2.549,-1.023 -4.599,-2.624 -5.481,-5.372 -1.158,-3.614 0.179,-6.837 3.575,-8.522 2.485,-1.232 5.175,-1.842 7.88,-2.307 5.281,-0.909 10.578,-1.73 15.874,-2.553 5.359,-0.833 10.454,-2.316 14.988,-5.46 4.779,-3.312 7.563,-7.774 8.297,-13.538 0.681,-5.348 0.285,-10.575 -1.843,-15.576 -2.511,-5.897 -6.891,-10.075 -12.415,-13.136 -4.33,-2.399 -9.008,-3.738 -13.884,-4.473 -3.436,-0.518 -6.892,-0.749 -10.358,-0.692 -7.53,0.124 -14.868,1.256 -21.783,4.43 -6.12,2.81 -11.178,6.901 -15.008,12.468 -0.246,0.358 -0.46,0.739 -0.676,1.089 0.079,0.082 0.098,0.117 0.112,0.115 1.503,-0.226 2.554,0.732 3.698,1.423 3.543,2.139 7.082,4.283 10.597,6.468 C -0.792,-1.027 -0.454,-0.483 0,0" /></g><g
           transform="translate(124.436,168.9599)"
           id="g28"><path
             id="path30"
             style="fill:#5d0e12;fill-opacity:1;fill-rule:nonzero;stroke:none"
             d="m 0,0 c 0,0.817 0.02,1.634 -0.003,2.45 -0.168,6.051 -1.104,11.968 -3.178,17.675 -1.712,4.71 -4.121,8.993 -7.843,12.438 -3.179,2.942 -6.915,4.768 -11.203,5.347 -3.434,0.465 -6.869,0.236 -10.266,-0.422 -7.399,-1.434 -12.987,-5.352 -16.481,-12.108 -2.4,-4.642 -3.452,-9.652 -3.962,-14.797 -0.397,-4.022 -0.435,-8.054 -0.178,-12.091 0.31,-4.885 1.143,-9.669 2.728,-14.304 1.494,-4.372 3.628,-8.379 6.739,-11.854 3.695,-4.126 8.459,-6.252 13.743,-7.204 5.033,-0.907 9.992,-0.167 14.718,1.757 5.306,2.16 9.171,5.902 11.481,11.155 0.601,1.368 0.879,2.875 1.345,4.305 C -0.493,-11.913 0,-5.986 0,0 m -24.125,44.496 c 2.92,-0.142 5.323,-0.189 7.713,-0.388 8.145,-0.674 15.436,-3.539 21.71,-8.801 5.314,-4.457 8.705,-10.195 10.725,-16.776 1.298,-4.228 1.971,-8.563 2.154,-12.982 0.339,-8.178 -0.573,-16.155 -3.939,-23.7 -4.253,-9.535 -11.445,-15.979 -21.113,-19.742 -4.259,-1.657 -8.673,-2.743 -13.225,-3.103 -3.473,-0.275 -6.97,-0.489 -10.448,-0.398 -6.975,0.184 -13.75,1.461 -20.102,4.502 -9.534,4.564 -15.628,12.051 -18.685,22.092 -1.75,5.744 -2.258,11.642 -2.098,17.616 0.142,5.327 0.954,10.535 2.737,15.575 0.774,2.188 2.127,4.061 3.279,6.039 3.864,6.637 9.324,11.57 16.233,14.892 5.21,2.504 10.73,3.966 16.462,4.576 3.023,0.322 6.069,0.428 8.597,0.598" /></g><g
           transform="translate(166.0654,156.2665)"
           id="g32"><path
             id="path34"
             style="fill:#5d0e12;fill-opacity:1;fill-rule:nonzero;stroke:none"
             d="m 0,0 h -0.009 c 0,-4.385 -0.01,-8.769 0.016,-13.153 0.002,-0.387 0.148,-0.833 0.372,-1.149 2.048,-2.893 4.796,-4.817 8.203,-5.796 0.45,-0.129 0.902,-0.259 1.361,-0.349 1.227,-0.24 2.464,-0.679 3.686,-0.646 4.254,0.113 7.39,2.238 9.635,5.776 0.793,1.25 1.097,2.657 1.491,4.068 0.722,2.582 1.369,5.161 1.626,7.829 0.37,3.845 0.301,7.668 -0.708,11.424 -0.896,3.337 -2.368,6.357 -5.107,8.594 -3.33,2.719 -7.201,3.523 -11.36,2.878 C 5.632,18.922 2.609,17.28 0.456,14.28 0.19,13.911 0.022,13.385 0.02,12.93 -0.013,8.62 0,4.31 0,0 m 0.007,-26.793 c 0,-0.299 0,-0.543 0,-0.787 -0.003,-6.541 -0.028,-13.083 0.011,-19.624 0.006,-1.226 0.164,-2.476 0.456,-3.665 0.149,-0.605 0.639,-1.298 1.173,-1.601 1.261,-0.716 2.624,-1.293 4.136,-1.241 1.019,0.035 2.064,-0.251 3.048,0.295 0.228,0.127 0.571,0.044 0.915,0.06 v -4.398 h -33.211 v 3.503 c 1.364,0.156 2.688,0.305 4.01,0.461 0.784,0.093 1.591,0.109 2.345,0.313 1.438,0.391 1.747,1.005 1.86,2.471 0.798,10.367 0.23,20.749 0.337,31.122 0.107,10.381 0.039,20.764 0.008,31.146 -0.007,2.15 -0.094,4.309 -0.324,6.445 -0.219,2.043 -1.091,2.671 -3.172,2.757 -1.557,0.064 -3.113,0.175 -4.665,0.307 -0.176,0.015 -0.462,0.297 -0.469,0.464 -0.043,1.085 -0.022,2.173 -0.022,3.197 2.621,0.402 5.119,0.788 7.617,1.169 4.732,0.723 9.183,2.444 13.708,3.901 0.399,0.128 0.704,0.553 1.105,0.883 1.02,-0.252 1.088,-0.33 1.089,-1.443 0.002,-2.948 0,-5.895 0,-8.757 1.229,-0.651 1.907,0.188 2.691,0.807 2.682,2.115 5.299,4.327 8.099,6.274 2.661,1.85 5.785,2.526 9.001,2.718 1.258,0.076 2.521,0.247 3.772,0.183 1.072,-0.055 2.158,-0.294 3.19,-0.607 7.707,-2.342 12.392,-7.602 14.436,-15.272 1.422,-5.332 0.839,-10.64 -0.546,-15.9 -1.458,-5.541 -3.882,-10.61 -8.194,-14.449 -4.932,-4.392 -10.094,-8.536 -16.145,-11.381 -3.016,-1.418 -6.157,-1.57 -9.355,-0.947 -2.104,0.41 -4.177,0.978 -6.265,1.473 -0.187,0.044 -0.378,0.073 -0.639,0.123" /></g><g
           transform="translate(506.7129,212.4487)"
           id="g36"><path
             id="path38"
             style="fill:#231916;fill-opacity:1;fill-rule:nonzero;stroke:none"
             d="m 0,0 v -67.862 c 1.452,-1.063 3.025,-0.85 4.562,-0.851 8.276,-0.004 16.552,-0.002 24.829,0 0.757,0 1.519,-0.091 2.214,0.402 0.249,0.178 0.661,0.127 1.063,0.191 v -17.632 h -52.882 v 84.724 c 0.989,0.145 1.91,0.39 2.834,0.398 4.757,0.039 9.516,0.003 14.273,0.035 0.636,0.005 1.271,0.251 1.908,0.379 C -0.84,-0.144 -0.478,-0.085 0,0" /></g><g
           transform="translate(290.6089,133.8574)"
           id="g40"><path
             id="path42"
             style="fill:#5d0e12;fill-opacity:1;fill-rule:nonzero;stroke:none"
             d="m 0,0 v -4.417 h -32.034 v 3.36 c 0.713,0.186 1.301,0.411 1.906,0.48 1.007,0.114 2.025,0.133 3.039,0.182 1.12,0.056 2.168,0.304 2.946,1.183 0.185,0.209 0.349,0.507 0.372,0.777 0.119,1.373 0.252,2.751 0.263,4.129 0.037,4.93 0.032,9.861 0.034,14.791 0.003,5.303 0.02,10.605 -0.024,15.907 -0.011,1.38 -0.125,2.776 -0.369,4.133 -0.296,1.647 -1.109,2.239 -2.775,2.34 -1.63,0.099 -3.261,0.194 -4.888,0.326 -0.199,0.017 -0.538,0.246 -0.544,0.388 -0.046,1.081 -0.025,2.166 -0.025,3.083 0.68,0.142 1.188,0.278 1.704,0.351 0.76,0.107 1.525,0.171 2.288,0.249 4.663,0.477 9.137,1.757 13.575,3.188 0.755,0.243 1.506,0.498 2.257,0.752 1.068,0.361 2.25,0.536 2.765,1.752 0.67,-0.263 0.931,-0.649 0.923,-1.324 -0.032,-2.749 -0.014,-5.499 -0.014,-8.17 1.12,-0.605 1.842,0.017 2.607,0.634 2.178,1.758 4.41,3.45 6.569,5.231 2.396,1.977 5.173,2.862 8.212,3.058 1.63,0.105 3.268,0.283 4.893,0.217 1.941,-0.079 3.778,-0.722 5.552,-1.508 4.604,-2.04 7.143,-5.724 7.987,-10.539 0.489,-2.787 0.722,-5.65 0.753,-8.482 0.097,-8.72 0.03,-17.443 0.057,-26.164 0.003,-1.008 0.154,-2.021 0.3,-3.022 0.167,-1.151 0.829,-1.933 1.939,-2.318 0.652,-0.226 1.29,-0.524 1.961,-0.662 0.945,-0.196 1.898,-0.565 2.877,0.041 0.281,0.174 0.761,0.026 1.186,0.026 V -4.416 H 13.108 v 1.798 C 13.106,8.111 13.12,18.84 13.09,29.568 c -0.006,2.306 -0.235,4.604 -1.048,6.791 -1.248,3.36 -3.688,5.318 -7.203,5.888 -2.2,0.357 -4.44,0.655 -6.607,-0.132 -3.321,-1.208 -5.729,-3.362 -6.703,-6.88 -0.078,-0.28 -0.089,-0.586 -0.09,-0.881 C -8.565,24.84 -8.573,15.325 -8.55,5.811 -8.548,4.827 -8.388,3.84 -8.248,2.863 c 0.167,-1.159 0.841,-1.949 1.956,-2.296 1.124,-0.349 2.257,-0.693 3.411,-0.907 0.485,-0.091 1.032,0.178 1.556,0.249 C -0.901,-0.034 -0.469,-0.03 0,0" /></g><g
           transform="translate(235.7007,162.1196)"
           id="g44"><path
             id="path46"
             style="fill:#5d0e12;fill-opacity:1;fill-rule:nonzero;stroke:none"
             d="m 0,0 c 0.001,0.073 0.002,0.147 0.003,0.22 1.831,0 3.663,-0.013 5.493,0.007 0.84,0.009 1.682,0.065 2.52,0.136 C 8.744,0.425 9.128,0.832 9.048,1.349 8.965,1.883 8.879,2.419 8.854,2.958 8.707,6.233 8.41,9.482 7.065,12.528 5.172,16.817 1.669,18.401 -2.83,17.765 -6.136,17.297 -8.259,15.333 -9.579,12.386 -11.12,8.946 -11.329,5.268 -11.444,1.578 -11.448,1.43 -11.373,1.182 -11.271,1.142 -10.637,0.894 -9.996,0.546 -9.339,0.501 -6.229,0.286 -3.113,0.159 0,0 M 24.335,-3.112 C 22.18,-3.558 20.069,-4.056 17.936,-4.422 12.724,-5.316 7.462,-5.527 2.182,-5.477 c -4.039,0.039 -8.079,-0.008 -12.118,0.006 -0.53,0.002 -0.76,-0.118 -0.744,-0.695 0.144,-5.024 1.339,-9.689 4.644,-13.63 2.762,-3.294 6.368,-5.112 10.528,-5.924 1.544,-0.301 3.089,-0.742 4.646,-0.804 3.106,-0.124 5.999,0.905 8.829,2.077 0.641,0.265 1.265,0.571 1.89,0.871 0.761,0.364 1.577,0.676 1.71,1.936 0.589,-0.711 1.037,-1.218 1.436,-1.762 0.078,-0.105 0.001,-0.369 -0.07,-0.531 -0.746,-1.67 -1.491,-3.341 -2.274,-4.994 -0.136,-0.287 -0.409,-0.569 -0.69,-0.718 -3.836,-2.032 -7.801,-3.73 -12.12,-4.446 -3.336,-0.553 -6.688,-0.658 -10.062,-0.397 -3.254,0.252 -6.414,0.887 -9.426,2.148 -7.259,3.036 -11.641,8.558 -13.713,16.032 -1.253,4.519 -1.417,9.14 -1.106,13.782 0.131,1.971 0.469,3.929 0.714,5.893 0.385,3.098 2.14,5.532 3.878,7.971 1.494,2.098 3.251,3.967 5.444,5.318 3.308,2.037 6.638,4.055 10.075,5.86 2.271,1.193 4.823,1.625 7.415,1.639 1.656,0.009 3.32,0.166 4.963,0.036 1.366,-0.108 2.739,-0.434 4.052,-0.843 7.671,-2.394 12.431,-7.457 13.9,-15.437 0.227,-1.234 0.309,-2.507 0.337,-3.765 0.052,-2.374 0.015,-4.75 0.015,-7.258" /></g><g
           transform="translate(197.4707,103.0136)"
           id="g48"><path
             id="path50"
             style="fill:#231916;fill-opacity:1;fill-rule:nonzero;stroke:none"
             d="m 0,0 c -2.148,0 -3.863,0.706 -5.145,2.119 -1.281,1.412 -1.921,3.324 -1.921,5.735 0,2.41 0.64,4.322 1.921,5.734 1.282,1.413 2.997,2.12 5.145,2.12 1.651,0 3.057,-0.446 4.217,-1.337 1.16,-0.891 1.813,-2.066 1.958,-3.523 H 4.103 c -0.083,0.96 -0.499,1.723 -1.249,2.29 -0.749,0.566 -1.693,0.849 -2.833,0.849 -1.541,0 -2.76,-0.53 -3.658,-1.59 -0.898,-1.061 -1.347,-2.575 -1.347,-4.543 0,-1.962 0.446,-3.475 1.337,-4.539 0.891,-1.064 2.1,-1.595 3.626,-1.595 1.188,0 2.148,0.29 2.881,0.87 0.732,0.58 1.146,1.409 1.243,2.487 H 6.175 C 6.03,3.46 5.395,2.21 4.269,1.326 3.143,0.442 1.72,0 0,0" /></g><g
           transform="translate(211.8833,112.4833)"
           id="g52"><path
             id="path54"
             style="fill:#231916;fill-opacity:1;fill-rule:nonzero;stroke:none"
             d="m 0,0 c -0.276,0.083 -0.674,0.125 -1.192,0.125 -0.995,0 -1.848,-0.522 -2.559,-1.565 V -9.211 H -5.709 V 1.782 h 1.958 V 0.249 c 0.822,1.188 1.775,1.782 2.86,1.782 0.276,0 0.573,-0.028 0.891,-0.083 z" /></g><g
           transform="translate(213.8623,100.6201)"
           id="g56"><path
             id="path58"
             style="fill:#231916;fill-opacity:1;fill-rule:nonzero;stroke:none"
             d="m 0,0 c 0.967,0 1.758,0.884 2.373,2.652 l -4.155,10.994 h 2.114 l 2.911,-8.6 2.911,8.6 H 8.268 L 4.113,2.652 C 3.712,1.603 3.373,0.792 3.093,0.223 2.813,-0.347 2.447,-0.827 1.995,-1.218 1.542,-1.608 0.988,-1.803 0.332,-1.803 c -0.491,0 -0.913,0.049 -1.265,0.145 V 0.145 C -0.629,0.048 -0.318,0 0,0" /></g><g
           transform="translate(225.8086,105.8832)"
           id="g60"><path
             id="path62"
             style="fill:#231916;fill-opacity:1;fill-rule:nonzero;stroke:none"
             d="m 0,0 c 0.836,-0.891 1.796,-1.336 2.88,-1.336 0.843,0 1.513,0.36 2.011,1.083 0.497,0.721 0.746,1.797 0.746,3.227 0,1.354 -0.235,2.381 -0.705,3.082 C 4.462,6.757 3.806,7.108 2.963,7.108 1.879,7.108 0.891,6.479 0,5.222 Z M 0,7.066 C 0.871,8.109 1.917,8.631 3.14,8.631 4.576,8.631 5.688,8.122 6.476,7.103 7.263,6.084 7.657,4.708 7.657,2.974 7.657,1.171 7.217,-0.253 6.336,-1.3 5.455,-2.347 4.345,-2.87 3.005,-2.87 1.817,-2.87 0.815,-2.5 0,-1.761 V -6.838 H -1.958 V 8.382 H 0 Z" /></g><g
           transform="translate(239.9209,103.2519)"
           id="g64"><path
             id="path66"
             style="fill:#231916;fill-opacity:1;fill-rule:nonzero;stroke:none"
             d="m 0,0 c -0.428,-0.083 -0.895,-0.125 -1.399,-0.125 -0.801,0 -1.388,0.144 -1.761,0.431 -0.373,0.286 -0.605,0.654 -0.694,1.103 -0.09,0.449 -0.135,1.06 -0.135,1.834 V 9.48 h -1.357 v 1.534 h 1.357 v 2.735 h 1.948 v -2.735 h 1.782 V 9.48 H -2.041 V 3.139 c 0,-0.753 0.095,-1.231 0.285,-1.435 0.19,-0.204 0.45,-0.306 0.782,-0.306 0.338,0 0.663,0.028 0.974,0.083 z" /></g><g
           transform="translate(246.0029,104.5468)"
           id="g68"><path
             id="path70"
             style="fill:#231916;fill-opacity:1;fill-rule:nonzero;stroke:none"
             d="M 0,0 C 0.933,0 1.689,0.354 2.269,1.062 2.85,1.77 3.14,2.822 3.14,4.217 3.14,5.619 2.85,6.674 2.269,7.382 1.689,8.09 0.933,8.444 0,8.444 -0.933,8.444 -1.689,8.09 -2.269,7.382 -2.849,6.674 -3.14,5.619 -3.14,4.217 -3.14,2.822 -2.849,1.77 -2.269,1.062 -1.689,0.354 -0.933,0 0,0 M 0,9.968 C 1.568,9.968 2.82,9.467 3.756,8.465 4.692,7.463 5.16,6.047 5.16,4.217 5.16,2.394 4.692,0.979 3.756,-0.026 2.82,-1.031 1.568,-1.533 0,-1.533 c -1.561,0 -2.81,0.502 -3.746,1.507 -0.936,1.005 -1.403,2.42 -1.403,4.243 0,1.83 0.467,3.246 1.403,4.248 C -2.81,9.467 -1.561,9.968 0,9.968" /></g><g
           transform="translate(260.3115,106.4326)"
           id="g72"><path
             id="path74"
             style="fill:#231916;fill-opacity:1;fill-rule:nonzero;stroke:none"
             d="m 0,0 v 5.222 c -0.843,0.891 -1.806,1.337 -2.891,1.337 -0.836,0 -1.504,-0.361 -2.005,-1.083 -0.5,-0.722 -0.751,-1.798 -0.751,-3.227 0,-1.354 0.237,-2.382 0.71,-3.083 0.473,-0.701 1.127,-1.052 1.963,-1.052 1.092,0 2.083,0.629 2.974,1.886 m 1.948,-2.311 c 0,-3.536 -1.595,-5.305 -4.787,-5.305 -1.381,0 -2.471,0.301 -3.269,0.902 -0.798,0.601 -1.197,1.409 -1.197,2.424 h 2.021 c 0,-1.201 0.808,-1.802 2.425,-1.802 0.911,0 1.616,0.25 2.113,0.751 C -0.249,-4.84 0,-3.858 0,-2.394 v 0.55 c -0.87,-1.051 -1.917,-1.575 -3.139,-1.575 -1.437,0 -2.549,0.511 -3.337,1.533 -0.787,1.023 -1.181,2.401 -1.181,4.135 0,1.795 0.441,3.217 1.321,4.263 0.881,1.047 1.988,1.57 3.321,1.57 1.188,0 2.193,-0.366 3.015,-1.099 v 0.85 h 1.948 z" /></g><g
           transform="translate(270.8599,112.4833)"
           id="g76"><path
             id="path78"
             style="fill:#231916;fill-opacity:1;fill-rule:nonzero;stroke:none"
             d="m 0,0 c -0.276,0.083 -0.674,0.125 -1.192,0.125 -0.995,0 -1.848,-0.522 -2.559,-1.565 V -9.211 H -5.709 V 1.782 h 1.958 V 0.249 c 0.822,1.188 1.775,1.782 2.86,1.782 0.276,0 0.573,-0.028 0.891,-0.083 z" /></g><g
           transform="translate(279.1792,106.163)"
           id="g80"><path
             id="path82"
             style="fill:#231916;fill-opacity:1;fill-rule:nonzero;stroke:none"
             d="m 0,0 v 2.435 h -1.336 c -2.832,0 -4.248,-0.77 -4.248,-2.31 0,-0.56 0.207,-0.99 0.621,-1.291 0.415,-0.3 0.974,-0.45 1.679,-0.45 0.642,0 1.263,0.145 1.865,0.435 C -0.818,-0.891 -0.345,-0.497 0,0 m 0,-1.761 c -0.995,-0.926 -2.276,-1.388 -3.844,-1.388 -1.092,0 -1.989,0.295 -2.694,0.885 -0.704,0.591 -1.057,1.352 -1.057,2.285 0,2.569 2.214,3.854 6.642,3.854 H 0 c 0,0.788 -0.042,1.359 -0.124,1.715 -0.083,0.356 -0.314,0.651 -0.694,0.886 -0.38,0.235 -0.985,0.352 -1.814,0.352 -1.74,0 -2.639,-0.621 -2.694,-1.865 h -1.947 c 0.145,2.259 1.726,3.389 4.745,3.389 1.409,0 2.507,-0.28 3.295,-0.84 C 1.554,6.953 1.948,5.854 1.948,4.217 V -2.891 H 0 Z" /></g><g
           transform="translate(285.9761,105.8832)"
           id="g84"><path
             id="path86"
             style="fill:#231916;fill-opacity:1;fill-rule:nonzero;stroke:none"
             d="m 0,0 c 0.836,-0.891 1.797,-1.336 2.881,-1.336 0.844,0 1.514,0.36 2.01,1.083 0.498,0.721 0.746,1.797 0.746,3.227 0,1.354 -0.235,2.381 -0.705,3.082 C 4.463,6.757 3.807,7.108 2.963,7.108 1.879,7.108 0.893,6.479 0,5.222 Z M 0,7.066 C 0.871,8.109 1.918,8.631 3.141,8.631 4.576,8.631 5.689,8.122 6.477,7.103 7.264,6.084 7.658,4.708 7.658,2.974 7.658,1.171 7.217,-0.253 6.336,-1.3 5.455,-2.347 4.346,-2.87 3.006,-2.87 1.816,-2.87 0.816,-2.5 0,-1.761 V -6.838 H -1.958 V 8.382 H 0 Z" /></g><g
           transform="translate(297.7778,112.8671)"
           id="g88"><path
             id="path90"
             style="fill:#231916;fill-opacity:1;fill-rule:nonzero;stroke:none"
             d="m 0,0 c 0.974,1.098 2.068,1.647 3.284,1.647 2.481,0 3.72,-1.35 3.72,-4.051 V -9.595 H 5.046 v 7.108 c 0,0.898 -0.16,1.544 -0.482,1.938 -0.321,0.393 -0.848,0.59 -1.58,0.59 C 1.989,0.041 0.995,-0.546 0,-1.72 V -9.595 H -1.958 V 5.595 H 0 Z" /></g><g
           transform="translate(308.2422,100.6201)"
           id="g92"><path
             id="path94"
             style="fill:#231916;fill-opacity:1;fill-rule:nonzero;stroke:none"
             d="m 0,0 c 0.968,0 1.758,0.884 2.373,2.652 l -4.155,10.994 h 2.114 l 2.911,-8.6 2.912,8.6 H 8.269 L 4.114,2.652 C 3.713,1.603 3.373,0.792 3.093,0.223 2.813,-0.347 2.447,-0.827 1.995,-1.218 1.542,-1.608 0.988,-1.803 0.332,-1.803 c -0.49,0 -0.912,0.049 -1.265,0.145 V 0.145 C -0.628,0.048 -0.317,0 0,0" /></g><g
           transform="translate(330.8301,106.163)"
           id="g96"><path
             id="path98"
             style="fill:#231916;fill-opacity:1;fill-rule:nonzero;stroke:none"
             d="m 0,0 v 2.435 h -1.337 c -2.832,0 -4.248,-0.77 -4.248,-2.31 0,-0.56 0.207,-0.99 0.621,-1.291 0.415,-0.3 0.975,-0.45 1.679,-0.45 0.642,0 1.264,0.145 1.865,0.435 0.601,0.29 1.074,0.684 1.42,1.181 m 0,-1.761 c -0.995,-0.926 -2.276,-1.388 -3.845,-1.388 -1.091,0 -1.989,0.295 -2.693,0.885 -0.705,0.591 -1.057,1.352 -1.057,2.285 0,2.569 2.213,3.854 6.642,3.854 H 0 c 0,0.788 -0.042,1.359 -0.125,1.715 -0.083,0.356 -0.314,0.651 -0.694,0.886 -0.38,0.235 -0.984,0.352 -1.813,0.352 -1.741,0 -2.639,-0.621 -2.694,-1.865 h -1.948 c 0.145,2.259 1.727,3.389 4.746,3.389 1.409,0 2.507,-0.28 3.295,-0.84 0.787,-0.559 1.18,-1.658 1.18,-3.295 V -2.891 H 0 Z" /></g><g
           transform="translate(337.627,112.8671)"
           id="g100"><path
             id="path102"
             style="fill:#231916;fill-opacity:1;fill-rule:nonzero;stroke:none"
             d="m 0,0 c 0.974,1.098 2.068,1.647 3.284,1.647 2.481,0 3.72,-1.35 3.72,-4.051 V -9.595 H 5.046 v 7.108 c 0,0.898 -0.16,1.544 -0.482,1.938 -0.321,0.393 -0.848,0.59 -1.58,0.59 C 1.989,0.041 0.995,-0.546 0,-1.72 V -9.595 H -1.958 V 1.398 H 0 Z" /></g><g
           transform="translate(354.4336,106.4326)"
           id="g104"><path
             id="path106"
             style="fill:#231916;fill-opacity:1;fill-rule:nonzero;stroke:none"
             d="m 0,0 v 5.222 c -0.843,0.891 -1.807,1.337 -2.892,1.337 -0.835,0 -1.504,-0.361 -2.004,-1.083 -0.5,-0.722 -0.751,-1.798 -0.751,-3.227 0,-1.354 0.236,-2.382 0.71,-3.083 0.472,-0.701 1.127,-1.052 1.963,-1.052 1.091,0 2.082,0.629 2.974,1.886 m 0,-1.844 c -0.871,-1.051 -1.917,-1.575 -3.14,-1.575 -1.436,0 -2.548,0.511 -3.337,1.533 -0.787,1.023 -1.18,2.401 -1.18,4.135 0,1.795 0.44,3.217 1.321,4.263 0.881,1.047 1.987,1.57 3.32,1.57 1.189,0 2.194,-0.366 3.016,-1.099 v 5.046 H 1.947 V -3.16 H 0 Z" /></g><g
           transform="translate(370.8965,103.0136)"
           id="g108"><path
             id="path110"
             style="fill:#231916;fill-opacity:1;fill-rule:nonzero;stroke:none"
             d="M 0,0 C -2.141,0 -3.742,0.48 -4.802,1.44 -5.862,2.4 -6.42,3.633 -6.476,5.139 h 1.938 c 0.103,-1.133 0.575,-1.971 1.414,-2.513 0.84,-0.542 1.853,-0.813 3.041,-0.813 1.126,0 2.033,0.231 2.721,0.694 0.686,0.463 1.03,1.092 1.03,1.886 0,0.836 -0.355,1.443 -1.067,1.823 -0.711,0.38 -1.936,0.755 -3.673,1.125 -1.738,0.369 -2.984,0.882 -3.74,1.538 -0.757,0.657 -1.135,1.53 -1.135,2.622 0,1.229 0.492,2.238 1.476,3.025 0.985,0.787 2.292,1.182 3.922,1.182 1.713,0 3.095,-0.398 4.145,-1.192 1.05,-0.794 1.606,-1.917 1.668,-3.368 H 3.306 c -0.201,1.838 -1.458,2.757 -3.772,2.757 -1.119,0 -1.986,-0.211 -2.6,-0.633 -0.616,-0.421 -0.923,-0.98 -0.923,-1.678 0,-0.636 0.247,-1.112 0.741,-1.43 C -2.754,9.846 -1.832,9.539 -0.481,9.242 0.869,8.945 1.941,8.651 2.735,8.361 3.53,8.071 4.21,7.621 4.777,7.009 5.343,6.398 5.627,5.578 5.627,4.548 5.627,3.243 5.106,2.158 4.067,1.295 3.027,0.431 1.672,0 0,0" /></g><g
           transform="translate(385.0498,103.0136)"
           id="g112"><path
             id="path114"
             style="fill:#231916;fill-opacity:1;fill-rule:nonzero;stroke:none"
             d="M 0,0 C -2.141,0 -3.742,0.48 -4.802,1.44 -5.862,2.4 -6.42,3.633 -6.476,5.139 h 1.938 c 0.103,-1.133 0.575,-1.971 1.414,-2.513 0.84,-0.542 1.853,-0.813 3.041,-0.813 1.126,0 2.033,0.231 2.721,0.694 0.686,0.463 1.03,1.092 1.03,1.886 0,0.836 -0.355,1.443 -1.067,1.823 -0.711,0.38 -1.936,0.755 -3.673,1.125 -1.738,0.369 -2.984,0.882 -3.74,1.538 -0.757,0.657 -1.135,1.53 -1.135,2.622 0,1.229 0.492,2.238 1.476,3.025 0.985,0.787 2.292,1.182 3.922,1.182 1.713,0 3.095,-0.398 4.145,-1.192 1.05,-0.794 1.606,-1.917 1.668,-3.368 H 3.306 c -0.201,1.838 -1.458,2.757 -3.772,2.757 -1.119,0 -1.986,-0.211 -2.6,-0.633 -0.616,-0.421 -0.923,-0.98 -0.923,-1.678 0,-0.636 0.247,-1.112 0.741,-1.43 C -2.754,9.846 -1.832,9.539 -0.481,9.242 0.869,8.945 1.941,8.651 2.735,8.361 3.53,8.071 4.21,7.621 4.777,7.009 5.343,6.398 5.627,5.578 5.627,4.548 5.627,3.243 5.106,2.158 4.067,1.295 3.027,0.431 1.672,0 0,0" /></g><g
           transform="translate(402.8711,103.2724)"
           id="g116"><path
             id="path118"
             style="fill:#231916;fill-opacity:1;fill-rule:nonzero;stroke:none"
             d="m 0,0 h -9.397 v 15.189 h 2.009 V 1.803 H 0 Z" /></g><g
           transform="translate(409.4717,118.4619)"
           id="g120"><path
             id="path122"
             style="fill:#231916;fill-opacity:1;fill-rule:nonzero;stroke:none"
             d="M 0,0 -4.394,-15.189 H -5.896 L -1.502,0 Z" /></g><g
           transform="translate(421.9678,116.6591)"
           id="g124"><path
             id="path126"
             style="fill:#231916;fill-opacity:1;fill-rule:nonzero;stroke:none"
             d="M 0,0 H -5.025 V -13.387 H -7.046 V 0 H -12.03 V 1.803 H 0 Z" /></g><g
           transform="translate(433.5303,103.2724)"
           id="g128"><path
             id="path130"
             style="fill:#231916;fill-opacity:1;fill-rule:nonzero;stroke:none"
             d="m 0,0 h -9.397 v 15.189 h 2.009 V 1.803 H 0 Z" /></g><g
           transform="translate(441.6641,103.0136)"
           id="g132"><path
             id="path134"
             style="fill:#231916;fill-opacity:1;fill-rule:nonzero;stroke:none"
             d="M 0,0 C -2.141,0 -3.742,0.48 -4.802,1.44 -5.862,2.4 -6.42,3.633 -6.476,5.139 h 1.938 c 0.103,-1.133 0.575,-1.971 1.414,-2.513 0.84,-0.542 1.853,-0.813 3.041,-0.813 1.126,0 2.033,0.231 2.721,0.694 0.686,0.463 1.03,1.092 1.03,1.886 0,0.836 -0.355,1.443 -1.067,1.823 -0.711,0.38 -1.936,0.755 -3.673,1.125 -1.738,0.369 -2.984,0.882 -3.74,1.538 -0.757,0.657 -1.135,1.53 -1.135,2.622 0,1.229 0.492,2.238 1.476,3.025 0.985,0.787 2.292,1.182 3.922,1.182 1.713,0 3.095,-0.398 4.145,-1.192 1.05,-0.794 1.606,-1.917 1.668,-3.368 H 3.306 c -0.201,1.838 -1.458,2.757 -3.772,2.757 -1.119,0 -1.986,-0.211 -2.6,-0.633 -0.616,-0.421 -0.923,-0.98 -0.923,-1.678 0,-0.636 0.247,-1.112 0.741,-1.43 C -2.754,9.846 -1.832,9.539 -0.481,9.242 0.869,8.945 1.941,8.651 2.735,8.361 3.53,8.071 4.21,7.621 4.777,7.009 5.343,6.398 5.627,5.578 5.627,4.548 5.627,3.243 5.106,2.158 4.067,1.295 3.027,0.431 1.672,0 0,0" /></g><g
           transform="translate(466.5215,116.6591)"
           id="g136"><path
             id="path138"
             style="fill:#231916;fill-opacity:1;fill-rule:nonzero;stroke:none"
             d="M 0,0 H -5.025 V -13.387 H -7.046 V 0 H -12.03 V 1.803 H 0 Z" /></g><g
           transform="translate(472.8828,104.5468)"
           id="g140"><path
             id="path142"
             style="fill:#231916;fill-opacity:1;fill-rule:nonzero;stroke:none"
             d="M 0,0 C 0.933,0 1.688,0.354 2.27,1.062 2.85,1.77 3.14,2.822 3.14,4.217 3.14,5.619 2.85,6.674 2.27,7.382 1.688,8.09 0.933,8.444 0,8.444 -0.933,8.444 -1.688,8.09 -2.27,7.382 -2.85,6.674 -3.14,5.619 -3.14,4.217 -3.14,2.822 -2.85,1.77 -2.27,1.062 -1.688,0.354 -0.933,0 0,0 M 0,9.968 C 1.568,9.968 2.82,9.467 3.756,8.465 4.692,7.463 5.16,6.047 5.16,4.217 5.16,2.394 4.692,0.979 3.756,-0.026 2.82,-1.031 1.568,-1.533 0,-1.533 c -1.562,0 -2.81,0.502 -3.745,1.507 -0.937,1.005 -1.404,2.42 -1.404,4.243 0,1.83 0.467,3.246 1.404,4.248 C -2.81,9.467 -1.562,9.968 0,9.968" /></g><g
           transform="translate(484.6846,104.5468)"
           id="g144"><path
             id="path146"
             style="fill:#231916;fill-opacity:1;fill-rule:nonzero;stroke:none"
             d="M 0,0 C 0.933,0 1.688,0.354 2.27,1.062 2.85,1.77 3.14,2.822 3.14,4.217 3.14,5.619 2.85,6.674 2.27,7.382 1.688,8.09 0.933,8.444 0,8.444 -0.933,8.444 -1.688,8.09 -2.27,7.382 -2.85,6.674 -3.14,5.619 -3.14,4.217 -3.14,2.822 -2.85,1.77 -2.27,1.062 -1.688,0.354 -0.933,0 0,0 M 0,9.968 C 1.568,9.968 2.82,9.467 3.756,8.465 4.692,7.463 5.16,6.047 5.16,4.217 5.16,2.394 4.692,0.979 3.756,-0.026 2.82,-1.031 1.568,-1.533 0,-1.533 c -1.562,0 -2.81,0.502 -3.745,1.507 -0.937,1.005 -1.404,2.42 -1.404,4.243 0,1.83 0.467,3.246 1.404,4.248 C -2.81,9.467 -1.562,9.968 0,9.968" /></g><path
           id="path148"
           style="fill:#231916;fill-opacity:1;fill-rule:nonzero;stroke:none"
           d="m 493.988,103.272 h -1.958 v 15.189 h 1.958 z" /><g
           transform="translate(505.9561,103.2724)"
           id="g150"><path
             id="path152"
             style="fill:#231916;fill-opacity:1;fill-rule:nonzero;stroke:none"
             d="M 0,0 H -2.332 L -5.906,5.585 -7.129,4.373 V 0 h -1.958 v 15.189 h 1.958 V 6.58 l 4.238,4.413 h 2.466 L -4.591,6.9 Z" /></g><path
           id="path154"
           style="fill:#231916;fill-opacity:1;fill-rule:nonzero;stroke:none"
           d="m 509.437,103.272 h -1.958 v 10.993 h 1.958 z m 0,13.076 h -1.958 v 2.114 h 1.958 z" /><g
           transform="translate(516.5859,103.2519)"
           id="g156"><path
             id="path158"
             style="fill:#231916;fill-opacity:1;fill-rule:nonzero;stroke:none"
             d="m 0,0 c -0.429,-0.083 -0.895,-0.125 -1.398,-0.125 -0.802,0 -1.389,0.144 -1.762,0.431 -0.373,0.286 -0.605,0.654 -0.694,1.103 -0.09,0.449 -0.135,1.06 -0.135,1.834 V 9.48 h -1.358 v 1.534 h 1.358 v 2.735 h 1.948 v -2.735 h 1.782 V 9.48 H -2.041 V 3.139 c 0,-0.753 0.095,-1.231 0.285,-1.435 0.19,-0.204 0.45,-0.306 0.782,-0.306 0.338,0 0.663,0.028 0.974,0.083 z" /></g></g></g></g></svg>