<?xml version="1.0" encoding="UTF-8" standalone="no"?>
<svg
   width="575"
   zoomAndPan="magnify"
   viewBox="0 0 431.25 431.24999"
   height="575"
   preserveAspectRatio="xMidYMid meet"
   version="1.0"
   id="svg140"
   xmlns="http://www.w3.org/2000/svg"
   xmlns:svg="http://www.w3.org/2000/svg">
  <g
     fill="#800000"
     fill-opacity="1"
     fill-rule="nonzero"
     id="g14774"
     transform="translate(9.9034295,39.017575)">
    <path
       d="m 12.121094,85.460938 c 4.707031,-8.011719 11.03125,-14.394532 18.976562,-19.15625 7.949219,-4.761719 16.621094,-7.136719 26.035156,-7.136719 9.414063,0 17.96875,2.375 25.964844,7.136719 7.996094,4.761718 14.363282,11.144531 19.117184,19.15625 4.74219,8.007812 7.1211,16.675782 7.1211,26.003902 0,9.33204 -2.34766,18.14453 -7.05469,26.15625 -4.707031,8.01172 -11.074219,14.34375 -19.113281,19.01563 -8.042969,4.67187 -16.722657,7 -26.035157,7 -9.3125,0 -18.109374,-2.30469 -26.101562,-6.92969 C 23.035156,152.09375 16.714844,145.80469 12.050781,137.82812 7.390625,129.875 5.066406,121.08203 5.066406,111.47656 c 0,-9.60547 2.347656,-17.996091 7.054688,-26.003904 z M 24.25,130.98828 c 3.390625,5.93359 8.019531,10.64844 13.894531,14.13672 5.875,3.49219 12.300781,5.23437 19.261719,5.23437 6.964844,0 13.332031,-1.72265 19.117188,-5.15234 5.785156,-3.44141 10.34375,-8.14844 13.6875,-14.14062 3.34375,-5.97657 5.003906,-12.50782 5.003906,-19.57813 0,-7.07031 -1.695313,-13.621092 -5.085938,-19.648436 C 86.738281,85.804688 82.136719,81.050781 76.304688,77.5625 70.476562,74.074219 64.074219,72.332031 57.121094,72.332031 c -6.953125,0 -13.355469,1.765625 -19.183594,5.300781 -5.832031,3.535157 -10.410156,8.320313 -13.753906,14.34375 -3.347656,6.039063 -5.007813,12.582028 -5.007813,19.648438 0,7.07031 1.695313,13.42969 5.085938,19.375 z m 0,0"
       id="path118" />
    <path
       d="m 170.77344,105.53125 c 4.42187,2.64063 7.90234,6.33594 10.43359,11.09766 2.54297,4.76562 3.81641,10.25 3.81641,16.46875 0,6.22265 -1.36328,11.52343 -4.08985,16.19531 -2.72656,4.66015 -6.48437,8.27344 -11.28125,10.8125 -4.80078,2.54687 -10.16015,3.82031 -16.08203,3.82031 -4.22656,0 -8.28125,-0.91797 -12.1289,-2.75391 -3.85938,-1.83593 -6.96485,-4.3164 -9.3125,-7.42578 v 36.89844 h -13.125 v -87.64844 h 11.42968 l 1.125,9.89454 c 3.01172,-3.39844 6.60547,-6.12891 10.78907,-8.19532 4.17968,-2.07812 8.72656,-3.10937 13.61718,-3.10937 5.45313,0 10.38672,1.3164 14.82032,3.95703 z m -9.52735,45.17187 c 3.14844,-1.74218 5.66797,-4.14062 7.54688,-7.20703 1.8789,-3.0625 2.8164,-6.48437 2.8164,-10.24609 0,-3.76563 -0.87109,-7.34766 -2.60937,-10.45703 -1.74219,-3.10938 -4.11328,-5.55469 -7.125,-7.34375 -3.01172,-1.79297 -6.34766,-2.6875 -10.02344,-2.6875 -4.98047,0 -9.24219,1.39062 -12.76953,4.17969 -3.52734,2.77734 -5.85156,6.52734 -6.98828,11.23437 v 9.75391 c 0.75781,4.52343 2.88672,8.23047 6.42578,11.09765 3.52734,2.88282 7.6875,4.31641 12.48438,4.31641 3.66796,0 7.07812,-0.87109 10.23046,-2.61719 z m 0,0"
       id="path120" />
    <path
       d="m 313.75781,106.60156 c 3.57422,3.2461 5.40625,7.46875 5.50781,12.65625 v 43.26563 h -13.26171 v -38.73047 c -0.1836,-3.29688 -1.17969,-5.89063 -2.96485,-7.76953 -1.78906,-1.88281 -4.46875,-2.8711 -8.04297,-2.97266 -5.17578,0 -9.44922,2.07422 -12.83984,6.21875 -3.37891,4.15625 -5.07031,9.42188 -5.07031,15.83984 v 27.42579 h -13.12891 v -58.52735 h 11.85547 l 0.84766,11.3125 c 2.0625,-4.24609 5.16406,-7.5625 9.3125,-9.97265 4.13281,-2.39844 8.88671,-3.60157 14.24609,-3.60157 5.35937,0 9.96484,1.62891 13.53906,4.875 z m 0,0"
       id="path124" />
    <path
       d="m 194,132.97266 c 0,-18.03125 13.71094,-32.26172 31.21094,-32.26172 17.5,0 30.11328,14.35937 30.11328,32.88281 v 3.42969 h -49.08985 c 1.71875,10.30859 10.15625,17.91406 20.9375,17.91406 6.11329,0 11.875,-1.96094 15.79297,-5.51953 l 7.83203,7.72656 c -7.33984,5.64453 -14.80859,8.21484 -24.12109,8.21484 -18.35937,0 -32.6875,-14.10546 -32.6875,-32.38671 z m 49.21484,-5.15235 c -1.71484,-9.57031 -9.18359,-16.6875 -18.24218,-16.6875 -9.0625,0 -16.89454,6.75 -18.61329,16.6875 z m 0,0"
       id="path126" />
  </g>
  <g
     fill="#000000"
     fill-opacity="1"
     fill-rule="nonzero"
     id="g14779"
     transform="translate(46.276249,47.47461)">
    <path
       d="m 170.47656,199.5625 c -4.45703,0 -7.92187,0.87891 -10.39062,2.64062 -2.46485,1.76172 -3.69922,4.39844 -3.69922,7.92188 0,3.23437 1.78906,6.08984 5.36328,8.53906 3.57812,2.46094 8.34375,4.79297 14.29687,7.01563 4.83204,1.76172 8.96485,3.78125 12.40625,6.05078 3.44141,2.26562 6.29297,5.40234 8.57813,9.38672 2.27344,3.98047 3.41797,9.03515 3.41797,15.14843 0,5.28125 -1.3711,10.17969 -4.1211,14.66797 -2.75,4.49219 -6.75781,8.05469 -12.05468,10.69532 -5.29688,2.64062 -11.6211,3.96093 -18.95703,3.96093 -6.13672,0 -12.22657,-0.90234 -18.26954,-2.70703 -6.04296,-1.80469 -11.66796,-4.55859 -16.86328,-8.26953 l 8.91797,-15.70703 c 3.53125,2.59766 7.57422,4.72656 12.13281,6.39844 4.5625,1.66797 8.64844,2.5039 12.26954,2.5039 4.28125,0 7.99218,-0.90234 11.16015,-2.70703 3.16016,-1.80469 4.74219,-4.75 4.74219,-8.82422 0,-5.27734 -4.96875,-9.87109 -14.91797,-13.75 -5.85156,-2.3164 -10.73047,-4.53906 -14.64453,-6.66797 -3.90625,-2.13281 -7.27734,-5.1914 -10.10938,-9.17578 -2.83984,-3.98047 -4.2539,-8.98828 -4.2539,-15.0039 0,-8.80078 2.90625,-15.89453 8.71484,-21.26563 5.80469,-5.37109 13.54688,-8.29297 23.21485,-8.7539 7.61718,0 13.98828,0.85546 19.10546,2.57031 5.10547,1.71484 10.08594,4.14062 14.91797,7.30078 l -7.66015,15.42187 c -8.92188,-4.90625 -16.6875,-7.36718 -23.28516,-7.36718 z m 0,0"
       id="path128" />
    <path
       d="m 251.76953,199.5625 c -4.46094,0 -7.92187,0.87891 -10.39062,2.64062 -2.46875,1.76172 -3.70313,4.39844 -3.70313,7.92188 0,3.23437 1.78906,6.08984 5.36719,8.53906 3.57422,2.46094 8.33984,4.79297 14.29687,7.01563 4.83203,1.76172 8.96094,3.78125 12.40235,6.05078 3.4414,2.26562 6.29297,5.40234 8.58203,9.38672 2.27344,3.98047 3.41797,9.03515 3.41797,15.14843 0,5.28125 -1.3711,10.17969 -4.1211,14.66797 -2.75,4.49219 -6.75781,8.05469 -12.05468,10.69532 -5.29688,2.64062 -11.625,3.96093 -18.95704,3.96093 -6.13671,0 -12.22656,-0.90234 -18.26953,-2.70703 -6.04687,-1.80469 -11.67187,-4.55859 -16.86718,-8.26953 l 8.92187,-15.70703 c 3.53125,2.59766 7.57031,4.72656 12.13281,6.39844 4.55078,1.66797 8.64844,2.5039 12.26953,2.5039 4.27735,0 7.99219,-0.90234 11.16016,-2.70703 3.15625,-1.80469 4.74219,-4.75 4.74219,-8.82422 0,-5.27734 -4.96875,-9.87109 -14.91797,-13.75 -5.85156,-2.3164 -10.73047,-4.53906 -14.64453,-6.66797 -3.90625,-2.13281 -7.28125,-5.1914 -10.10938,-9.17578 -2.83984,-3.98047 -4.25781,-8.98828 -4.25781,-15.0039 0,-8.80078 2.91016,-15.89453 8.71875,-21.26563 5.80469,-5.37109 13.54688,-8.29297 23.21484,-8.7539 7.61719,0 13.98829,0.85546 19.10547,2.57031 5.10547,1.71484 10.08594,4.14062 14.91797,7.30078 l -7.66406,15.42187 c -8.91797,-4.90625 -16.68359,-7.36718 -23.28125,-7.36718 z m 0,0"
       id="path132" />
    <path
       d="m 321.76562,182.1875 v 82.83594 h 48.23829 v 19.46093 H 301.55078 V 182.1875 Z m 0,0"
       id="path136" />
  </g>
</svg>
